<?xml version="1.0" standalone="no"?>
<!DOCTYPE svg PUBLIC "-//W3C//DTD SVG 20010904//EN"
 "http://www.w3.org/TR/2001/REC-SVG-20010904/DTD/svg10.dtd">
<svg version="1.0" xmlns="http://www.w3.org/2000/svg"
 width="180.000000pt" height="180.000000pt" viewBox="0 0 180.000000 180.000000"
 preserveAspectRatio="xMidYMid meet">

<g transform="translate(0.000000,180.000000) scale(0.100000,-0.100000)"
fill="#000000" stroke="none">
<path d="M847 1753 c-2 -5 -7 -20 -11 -35 -7 -29 -20 -36 -31 -18 -13 22 -23
8 -29 -44 l-7 -54 -47 -7 c-56 -8 -81 -20 -104 -48 -16 -21 -17 -21 -53 -4
-26 13 -42 30 -56 63 -19 42 -23 45 -47 39 -59 -16 -109 -24 -154 -25 -86 0
-100 -17 -38 -45 28 -13 37 -22 30 -29 -20 -20 -9 -34 31 -41 l42 -7 -29 -23
c-23 -19 -27 -26 -17 -36 11 -11 23 -11 65 0 29 7 81 14 115 14 l63 2 0 -80
c0 -73 9 -150 26 -215 5 -21 -2 -17 -43 25 -26 28 -59 65 -73 84 l-26 34 -69
-12 c-123 -21 -368 -86 -372 -98 -6 -16 55 -32 149 -40 85 -7 89 -16 23 -48
-19 -9 -35 -20 -35 -24 0 -5 -18 -3 -40 2 -22 6 -42 9 -45 6 -3 -3 4 -33 16
-67 19 -56 27 -66 82 -105 34 -23 113 -73 175 -111 94 -56 112 -71 107 -87 -9
-26 41 -47 63 -25 12 12 22 9 73 -21 49 -29 62 -33 74 -23 19 16 19 34 0 50
-22 18 -18 41 15 80 17 19 30 39 30 45 0 6 14 24 30 40 l30 29 0 -105 c0 -58
4 -109 9 -114 5 -6 7 -60 4 -122 -5 -97 -8 -113 -24 -118 -10 -3 -21 -16 -25
-27 -9 -31 36 -68 83 -68 64 0 129 46 109 79 -3 5 1 14 9 21 8 7 18 30 21 51
4 22 9 39 13 39 4 0 13 -30 21 -67 14 -66 17 -69 60 -91 31 -16 59 -22 90 -20
41 3 45 6 48 31 3 21 -3 31 -27 45 -23 13 -29 22 -25 38 3 12 0 50 -7 85 -11
58 -19 369 -10 369 12 0 50 -58 62 -94 15 -50 27 -66 42 -60 18 7 37 -65 30
-115 -6 -42 -6 -43 23 -39 27 3 30 8 51 86 24 91 69 215 90 248 8 12 33 27 56
33 49 13 124 72 113 89 -4 7 -17 12 -28 12 -20 0 -21 1 -3 20 10 11 24 20 32
20 8 0 26 8 41 18 15 11 46 31 70 46 50 31 55 50 12 44 -42 -6 -37 6 15 37 46
26 83 70 71 82 -4 4 -55 2 -114 -5 -74 -8 -133 -9 -192 -3 -47 6 -110 12 -140
14 l-55 5 -32 -67 c-18 -36 -42 -79 -55 -94 l-23 -28 -1 108 c0 59 -4 125 -8
147 -7 38 -7 38 19 32 53 -14 180 51 161 82 -3 5 6 20 19 32 27 26 32 46 13
52 -8 3 -2 14 17 30 17 15 27 30 23 34 -4 3 -35 1 -69 -5 -34 -7 -83 -10 -109
-6 l-48 7 -20 -44 c-11 -24 -26 -51 -33 -61 -13 -17 -16 -16 -53 2 -21 11 -58
23 -82 27 -43 6 -44 7 -44 43 0 20 -4 43 -10 51 -7 12 -12 12 -29 -4 -22 -20
-20 -23 -46 52 -5 13 -21 16 -28 5z m69 -102 c11 9 14 7 14 -15 0 -25 -2 -26
-65 -26 -59 0 -65 2 -65 21 0 16 4 19 20 14 15 -5 22 0 30 20 l10 27 21 -26
c17 -21 24 -24 35 -15z m104 -121 c0 -5 -10 -10 -22 -10 -19 0 -20 2 -8 10 19
13 30 13 30 0z m-327 -17 c-7 -2 -19 -2 -25 0 -7 3 -2 5 12 5 14 0 19 -2 13
-5z m117 -153 c0 -5 -4 -10 -10 -10 -5 0 -10 5 -10 10 0 6 5 10 10 10 6 0 10
-4 10 -10z m88 -25 c22 -34 52 -47 52 -22 1 26 37 56 61 50 53 -13 59 -28 59
-142 0 -125 -20 -186 -65 -197 -44 -11 -187 1 -221 19 -43 22 -82 108 -92 203
-9 81 -8 85 27 104 21 11 26 10 38 -6 15 -21 17 -34 3 -34 -8 0 -40 -51 -40
-65 0 -14 31 -2 41 16 l11 21 14 -21 c15 -20 44 -29 44 -13 0 4 -7 18 -16 30
-8 12 -11 22 -5 22 5 0 15 16 21 35 15 45 38 45 68 0z m42 25 c0 -5 -4 -10
-10 -10 -5 0 -10 5 -10 10 0 6 5 10 10 10 6 0 10 -4 10 -10z m490 -249 c0 -5
-7 -14 -15 -21 -12 -10 -15 -10 -15 2 0 8 3 18 7 21 9 10 23 9 23 -2z m-1063
-96 c-27 -25 -54 -45 -60 -45 -11 0 -97 76 -97 86 0 2 46 4 103 4 l102 -1 -48
-44z m-204 21 c18 -7 64 -42 102 -77 39 -35 103 -89 143 -119 70 -53 84 -70
60 -70 -36 0 -344 204 -352 233 -13 51 -6 56 47 33z m1151 -66 c-1 -5 -2 -29
-3 -52 l-1 -43 -39 61 c-21 34 -44 65 -50 68 -6 4 -11 11 -11 16 0 5 24 -2 53
-15 28 -14 52 -29 51 -35z m-710 -9 c3 -5 -3 -29 -14 -52 -11 -24 -20 -55 -20
-68 0 -19 -4 -22 -22 -18 -12 4 -28 1 -35 -5 -10 -8 -32 4 -90 48 l-78 58 70
23 c71 22 179 31 189 14z m694 -204 c2 -12 -3 -17 -17 -17 -15 0 -21 6 -21 21
0 25 33 22 38 -4z m-688 -16 c0 -6 -5 -13 -10 -16 -15 -9 -43 3 -35 15 8 13
45 13 45 1z"/>
<path d="M967 1302 c-10 -10 -17 -26 -17 -35 0 -22 26 -22 34 -1 6 15 9 15 29
-5 27 -24 37 -27 37 -7 0 19 -39 66 -54 66 -7 0 -20 -8 -29 -18z"/>
<path d="M980 1235 c0 -8 7 -15 15 -15 8 0 15 7 15 15 0 8 -7 15 -15 15 -8 0
-15 -7 -15 -15z"/>
<path d="M767 1224 c-8 -8 1 -24 14 -24 5 0 9 7 9 15 0 15 -12 20 -23 9z"/>
<path d="M876 1171 c-8 -54 1 -73 33 -69 24 3 39 28 16 28 -5 -1 -12 16 -15
36 -7 51 -26 54 -34 5z"/>
<path d="M970 1080 c-8 -5 -45 -10 -82 -10 -54 0 -68 -3 -68 -15 0 -21 138
-21 166 -1 23 17 8 41 -16 26z"/>
</g>
</svg>
