<?xml version="1.0" standalone="no"?>
<!DOCTYPE svg PUBLIC "-//W3C//DTD SVG 20010904//EN"
 "http://www.w3.org/TR/2001/REC-SVG-20010904/DTD/svg10.dtd">
<svg version="1.0" xmlns="http://www.w3.org/2000/svg"
 width="500.000000pt" height="500.000000pt" viewBox="0 0 500.000000 500.000000"
 preserveAspectRatio="xMidYMid meet">

<g transform="translate(0.000000,500.000000) scale(0.100000,-0.100000)"
fill="#000000" stroke="none">
<path d="M2045 4649 c-193 -14 -499 -99 -700 -193 -144 -68 -401 -224 -451
-275 -82 -83 -175 -296 -233 -532 -37 -153 -57 -299 -72 -542 -20 -315 18
-572 116 -801 166 -387 435 -816 638 -1018 124 -122 626 -517 802 -630 105
-68 258 -142 474 -229 194 -79 243 -91 258 -65 4 7 82 38 173 69 327 109 422
159 573 297 107 99 275 318 516 675 135 201 163 256 200 406 56 220 76 398 75
649 -2 440 -29 624 -136 930 -116 333 -243 618 -311 702 -93 113 -397 377
-496 431 -59 33 -260 84 -399 102 -225 29 -790 43 -1027 24z m868 -89 c149 -9
201 -16 315 -46 76 -19 164 -47 197 -63 79 -37 187 -125 349 -285 122 -120
137 -139 183 -231 94 -184 291 -708 324 -856 57 -264 81 -653 55 -894 -43
-381 -85 -490 -345 -872 -255 -377 -493 -619 -673 -687 -35 -13 -145 -47 -243
-76 -99 -28 -201 -62 -227 -75 l-47 -24 -58 19 c-32 10 -110 35 -173 55 -63
21 -144 52 -180 70 -180 90 -649 438 -939 694 -143 126 -312 356 -483 653
-167 291 -251 499 -285 703 -25 152 -25 528 1 700 55 376 158 657 284 777 88
83 334 225 515 297 102 41 276 93 402 121 156 35 611 44 1028 20z"/>
<path d="M3760 3456 c-93 -34 -401 -206 -487 -271 -78 -58 -120 -117 -188
-260 -71 -150 -94 -239 -101 -385 -9 -179 31 -326 98 -358 40 -19 174 -26 239
-13 84 18 166 72 333 222 212 192 254 254 320 471 49 164 60 237 54 374 -8
191 -39 235 -162 233 -39 0 -87 -6 -106 -13z m163 -108 c32 -43 35 -174 7
-308 -27 -135 -78 -284 -121 -356 -73 -123 -313 -345 -431 -399 -98 -45 -248
-56 -277 -21 -6 7 -20 53 -32 102 -17 72 -20 108 -16 189 6 112 35 210 66 220
20 6 33 33 52 105 37 147 125 236 362 366 245 135 346 162 390 102z"/>
<path d="M1105 3406 c-36 -16 -82 -67 -102 -113 -16 -40 -18 -415 -2 -561 13
-123 55 -330 80 -398 23 -62 105 -144 176 -177 45 -21 61 -22 263 -21 306 2
460 27 551 89 83 58 95 120 64 347 -31 223 -70 324 -168 425 -140 146 -611
393 -748 393 -15 0 -29 7 -33 15 -7 18 -41 19 -81 1z m97 -95 c18 -10 65 -26
103 -36 147 -37 492 -225 591 -323 91 -89 128 -187 159 -425 18 -147 12 -191
-34 -224 -68 -51 -149 -67 -401 -82 -209 -11 -295 -3 -357 35 -60 37 -87 77
-118 176 -39 123 -53 228 -65 470 -14 272 -9 332 31 388 33 45 44 48 91 21z"/>
<path d="M3240 1819 c-430 -56 -1024 -176 -1236 -249 -58 -21 -59 -21 -74 -1
-8 10 -28 35 -43 56 -31 39 -61 44 -81 13 -8 -14 -4 -30 19 -75 16 -32 29 -66
30 -76 0 -9 12 -27 26 -40 15 -12 53 -60 87 -107 120 -170 185 -225 335 -285
135 -54 222 -70 392 -70 142 0 155 2 253 33 148 47 364 140 461 197 46 28 114
78 152 113 56 52 72 73 84 115 35 119 5 302 -63 380 -20 23 -146 22 -342 -4z
m289 -76 c33 -28 57 -159 43 -237 -14 -72 -49 -112 -162 -187 -161 -106 -370
-200 -535 -240 -175 -42 -418 -7 -606 87 -77 38 -168 130 -241 244 l-48 75 59
28 c103 49 456 123 916 192 399 60 536 69 574 38z"/>
</g>
</svg>
